<svg width="800" height="600" viewBox="0 0 800 600" xmlns="http://www.w3.org/2000/svg">
  <defs>
    <!-- Main background gradient -->
    <linearGradient id="bgGradient" x1="0%" y1="0%" x2="100%" y2="100%">
      <stop offset="0%" style="stop-color:#f8fffe;stop-opacity:1" />
      <stop offset="30%" style="stop-color:#f0fdf4;stop-opacity:1" />
      <stop offset="70%" style="stop-color:#ecfdf5;stop-opacity:1" />
      <stop offset="100%" style="stop-color:#f0fdf4;stop-opacity:1" />
    </linearGradient>
    
    <!-- Secondary gradient for depth -->
    <linearGradient id="secondaryGradient" x1="0%" y1="0%" x2="100%" y2="100%">
      <stop offset="0%" style="stop-color:#dcfce7;stop-opacity:0.3" />
      <stop offset="100%" style="stop-color:#bbf7d0;stop-opacity:0.2" />
    </linearGradient>
    
    <!-- Medical cross gradient -->
    <linearGradient id="crossGradient" x1="0%" y1="0%" x2="100%" y2="100%">
      <stop offset="0%" style="stop-color:#10b981;stop-opacity:0.8" />
      <stop offset="100%" style="stop-color:#059669;stop-opacity:0.6" />
    </linearGradient>
    
    <!-- Subtle pattern for texture -->
    <pattern id="medicalPattern" x="0" y="0" width="120" height="120" patternUnits="userSpaceOnUse">
      <circle cx="60" cy="60" r="1.5" fill="#10b981" opacity="0.08"/>
      <circle cx="30" cy="30" r="1" fill="#059669" opacity="0.06"/>
      <circle cx="90" cy="30" r="1" fill="#059669" opacity="0.06"/>
      <circle cx="30" cy="90" r="1" fill="#059669" opacity="0.06"/>
      <circle cx="90" cy="90" r="1" fill="#059669" opacity="0.06"/>
    </pattern>
    
    <!-- Drop shadow filter -->
    <filter id="dropShadow" x="-20%" y="-20%" width="140%" height="140%">
      <feDropShadow dx="2" dy="2" stdDeviation="3" flood-color="#000000" flood-opacity="0.1"/>
    </filter>
  </defs>
  
  <!-- Main background -->
  <rect width="800" height="600" fill="url(#bgGradient)"/>
  <rect width="800" height="600" fill="url(#secondaryGradient)"/>
  <rect width="800" height="600" fill="url(#medicalPattern)"/>
  
  <!-- Decorative medical elements with better positioning -->
  <g opacity="0.15">
    <!-- Top left medical cross -->
    <g transform="translate(80, 80)">
      <rect x="-4" y="-20" width="8" height="40" fill="url(#crossGradient)" rx="2"/>
      <rect x="-20" y="-4" width="40" height="8" fill="url(#crossGradient)" rx="2"/>
    </g>
    
    <!-- Top right medical cross -->
    <g transform="translate(720, 100)">
      <rect x="-4" y="-20" width="8" height="40" fill="url(#crossGradient)" rx="2"/>
      <rect x="-20" y="-4" width="40" height="8" fill="url(#crossGradient)" rx="2"/>
    </g>
    
    <!-- Bottom left medical cross -->
    <g transform="translate(100, 520)">
      <rect x="-4" y="-20" width="8" height="40" fill="url(#crossGradient)" rx="2"/>
      <rect x="-20" y="-4" width="40" height="8" fill="url(#crossGradient)" rx="2"/>
    </g>
    
    <!-- Bottom right medical cross -->
    <g transform="translate(700, 480)">
      <rect x="-4" y="-20" width="8" height="40" fill="url(#crossGradient)" rx="2"/>
      <rect x="-20" y="-4" width="40" height="8" fill="url(#crossGradient)" rx="2"/>
    </g>
  </g>
  
  <!-- Subtle decorative circles -->
  <g opacity="0.08">
    <circle cx="150" cy="150" r="60" fill="#10b981"/>
    <circle cx="650" cy="120" r="45" fill="#059669"/>
    <circle cx="120" cy="450" r="50" fill="#10b981"/>
    <circle cx="680" cy="480" r="35" fill="#059669"/>
  </g>
  
  <!-- Medical heartbeat pattern -->
  <g opacity="0.12" transform="translate(200, 300)">
    <path d="M0,0 L20,0 L25,-15 L30,15 L35,-10 L40,10 L45,0 L65,0" 
          stroke="#10b981" stroke-width="3" fill="none" stroke-linecap="round"/>
  </g>
  
  <!-- Additional medical symbols -->
  <g opacity="0.1">
    <!-- Stethoscope symbol -->
    <g transform="translate(500, 200)">
      <circle cx="0" cy="0" r="8" fill="none" stroke="#10b981" stroke-width="2"/>
      <circle cx="0" cy="0" r="3" fill="#10b981"/>
      <path d="M8,0 Q20,0 20,15 Q20,25 15,25 Q10,25 10,20" 
            stroke="#10b981" stroke-width="2" fill="none"/>
    </g>
    
    <!-- Pill symbol -->
    <g transform="translate(300, 400)">
      <ellipse cx="0" cy="0" rx="12" ry="6" fill="#10b981" opacity="0.3"/>
      <line x1="-8" y1="0" x2="8" y2="0" stroke="#10b981" stroke-width="1"/>
    </g>
  </g>
  
  <!-- Subtle border frame -->
  <rect x="20" y="20" width="760" height="560" fill="none" stroke="#e5e7eb" stroke-width="1" opacity="0.3" rx="8"/>
</svg>